# xmcd
#
# Track frame offsets: 
#        150
#        14177
#        29685
#        40763
#        66198
#        78490
#        91835
#        103189
#        115698
#        128416
#        139743
#        154799
#        169737
#
# Disc length: 2429 seconds
#
# Revision: 0
# Processed by: cddbd v1.5.2PL0 Copyright (c) Steve Scherf et al.
# Submitted via: ExactAudioCopy v0.99pb5
#
DISCID=a8097b0d
DTITLE=Ricky Skaggs - Solo Songs My Dad Loved
DYEAR=2009
DGENRE=Bluegrass
TTITLE0=Foggy River
TTITLE1=What Is A Home Without Love
TTITLE2=Colonel Prentiss (Instrumental)
TTITLE3=City That Lies Foursquare
TTITLE4=Little Maggie
TTITLE5=Sinners You Better Get Ready
TTITLE6=Pickin' In Caroline (Instrumental)
TTITLE7=I Had But 50 Cents
TTITLE8=Green Pastures In The Sky
TTITLE9=Calloway (Instrumental)
TTITLE10=This World Is Not My Home
TTITLE11=Branded Wherever I Go
TTITLE12=God Holds The Future In His Hands
EXTD=
EXTT0=
EXTT1=
EXTT2=
EXTT3=
EXTT4=
EXTT5=
EXTT6=
EXTT7=
EXTT8=
EXTT9=
EXTT10=
EXTT11=
EXTT12=
PLAYORDER=
